<svg height="100" viewBox="0 0 100 100" width="100" xmlns="http://www.w3.org/2000/svg"><g fill="#fff" fill-rule="evenodd"><path d="m47.9 60.35.42-2.82 3.96-2.73-.87-3.72h-.54l-4.2-.33-1.62-2.28.93-4.8-3.12-2.01-.39.39-3.15 2.79-2.7-.42-2.64-4.08-3.57.9v.57l-.3 4.29-2.22 1.68-4.68-.99-1.92 3.27.36.42 2.7 3.27-.39 2.82-3.96 2.7.87 3.69.54.06 4.14.33 1.65 2.25-.96 4.8 3.15 1.98.42-.36 3.15-2.82 2.7.42 2.61 4.08 3.6-.9v-.6l.27-4.2 2.22-1.68 4.62.99 1.92-3.27-.36-.42-2.64-3.24zm-5.49.66c-.9689506 1.7071006-2.5928764 2.9445896-4.4958491 3.4259964-1.9029728.4814068-3.9199992.164992-5.5841509-.8759964-3.4728753-2.2650689-4.5667226-6.8513202-2.49-10.44.9638159-1.7121368 2.5854616-2.9560251 4.4888808-3.4432098 1.9034193-.4871847 3.9232577-.175343 5.5911192.8632098 3.4903014 2.2668235 4.5861331 6.8745975 2.49 10.47z"/><path d="m75.65 46.28.42-2.82 3.93-2.7-.87-3.69h-.54l-4.14-.33-1.65-2.34.93-4.8-3.15-1.98-.42.36-3.15 2.79-2.7-.42-2.58-4.08-3.6.9-.06.6-.27 4.23-2.22 1.68-4.62-.96-1.92 3.27.36.45 2.7 3.27-.42 2.82-3.93 2.67.87 3.72h.54l4.14.33 1.62 2.31-.96 4.8 3.15 2.04.42-.36 3.15-2.82 2.7.42 2.61 4.08 3.57-.9.03-.57.3-4.29 2.22-1.68 4.65.96 1.92-3.27-.36-.42zm-5.52.66c-.9689506 1.7071006-2.5928764 2.9445896-4.4958491 3.4259964-1.9029728.4814068-3.9199992.164992-5.5841509-.8759964-3.4837292-2.2595179-4.5684093-6.8627943-2.46-10.44.9638159-1.7121368 2.5854616-2.9560251 4.4888808-3.4432098 1.9034193-.4871847 3.9232577-.1753429 5.5911192.8632098 3.479662 2.2763974 4.5618259 6.8821928 2.46 10.47z"/></g></svg>